# xmcd
#
# Track frame offsets:
#	150
#	12629
#	29327
#	48558
#	66007
#	81119
#	92451
#	107967
#
# Disc length: 1578 seconds
#
# Revision: 0
# Processed by: cddbd v1.5.2PL0 Copyright (c) Steve Scherf et al.
# Submitted via: dBpowerAMP V4.0
#
DISCID=62062808
DTITLE=Black Joe Lewis - Black Joe Lewis
DYEAR=1900
DGENRE=Blues
TTITLE0=I Don't Mind
TTITLE1=Boogie
TTITLE2=Bitch, I Love You
TTITLE3=Cousin Randy
TTITLE4=Please
TTITLE5=You Don't Love Me
TTITLE6=I Know Somebody Loves Me
TTITLE7=DC Killa
EXTD=Label: Weary Records\nYear: 2004?
EXTT0=
EXTT1=
EXTT2=
EXTT3=
EXTT4=
EXTT5=
EXTT6=
EXTT7=
PLAYORDER=
